<?xml version="1.0" encoding="UTF-8" standalone="no"?>
<svg
   id="Layer_1"
   data-name="Layer 1"
   width="521.62mm"
   height="269.49mm"
   viewBox="0 0 1478.6 763.92"
   version="1.1"
   sodipodi:docname="Liftkooi v.2019.svg"
   inkscape:version="1.1 (c4e8f9e, 2021-05-24)"
   xmlns:inkscape="http://www.inkscape.org/namespaces/inkscape"
   xmlns:sodipodi="http://sodipodi.sourceforge.net/DTD/sodipodi-0.dtd"
   xmlns="http://www.w3.org/2000/svg"
   xmlns:svg="http://www.w3.org/2000/svg">
  <sodipodi:namedview
     id="namedview1952"
     pagecolor="#505050"
     bordercolor="#eeeeee"
     borderopacity="1"
     inkscape:pageshadow="0"
     inkscape:pageopacity="0"
     inkscape:pagecheckerboard="0"
     inkscape:document-units="mm"
     showgrid="false"
     inkscape:zoom="0.20699025"
     inkscape:cx="1115.9946"
     inkscape:cy="973.47578"
     inkscape:window-width="1488"
     inkscape:window-height="909"
     inkscape:window-x="0"
     inkscape:window-y="25"
     inkscape:window-maximized="0"
     inkscape:current-layer="Layer_1" />
  <defs
     id="defs1807">
    <style
       id="style1805">.cls-1{fill:none;stroke:red;stroke-width:0.03px;}</style>
  </defs>
  <polygon
     class="cls-1"
     points="72.01,8.52 144.01,8.52 144.01,0.01 216.01,0.01 216.01,8.52 288.01,8.52 288.01,0.01 360.01,0.01 360.01,68.05 351.51,68.05 351.51,136.08 360.01,136.08 360.01,204.11 351.51,204.11 351.51,272.14 360.01,272.14 360.01,340.17 288.01,340.17 288.01,331.67 216.01,331.67 216.01,340.17 144.01,340.17 144.01,331.67 72.01,331.67 72.01,340.17 0.01,340.17 0.01,272.14 8.52,272.14 8.52,204.11 0.01,204.11 0.01,136.08 8.52,136.08 8.52,68.05 0.01,68.05 0.01,0.01 72.01,0.01 "
     id="polygon1809"
     transform="matrix(0.99998222,0,0,0.99997983,-1.5129405e-7,-8.9183638e-4)" />
  <polygon
     class="cls-1"
     points="432.01,8.52 504.01,8.52 504.01,0.01 576.01,0.01 576.01,8.52 648.01,8.52 648.01,0.01 720.01,0.01 720.01,68.05 711.51,68.05 711.51,136.08 720.01,136.08 720.01,204.11 711.51,204.11 711.51,272.14 720.01,272.14 720.01,340.17 648.01,340.17 648.01,331.67 576.01,331.67 576.01,340.17 504.01,340.17 504.01,331.67 432.01,331.67 432.01,340.17 360.01,340.17 360.01,272.14 368.52,272.14 368.52,204.11 360.01,204.11 360.01,136.08 368.52,136.08 368.52,68.05 360.01,68.05 360.01,0.01 432.01,0.01 "
     id="polygon1811"
     transform="matrix(0.99998222,0,0,0.99997983,-1.5129405e-7,-8.9183638e-4)" />
  <polygon
     class="cls-1"
     points="800.09,8.52 880.17,8.52 880.17,0.01 942.53,0.01 942.53,8.52 1022.61,8.52 1022.61,0.01 1094.19,0.01 1094.19,68.05 1102.69,68.05 1102.69,136.08 1094.19,136.08 1094.19,204.11 1102.69,204.11 1102.69,272.14 1094.19,272.14 1094.19,340.17 1022.61,340.17 1022.61,331.67 942.53,331.67 942.53,340.17 880.17,340.17 880.17,331.67 800.09,331.67 800.09,340.17 728.52,340.17 728.52,272.14 720.01,272.14 720.01,204.11 728.52,204.11 728.52,136.08 720.01,136.08 720.01,68.05 728.52,68.05 728.52,0.01 800.09,0.01 "
     id="polygon1813"
     transform="matrix(0.99998222,0,0,0.99997983,-1.5129405e-7,-8.9183638e-4)" />
  <polygon
     class="cls-1"
     points="800.09,348.68 880.17,348.68 880.17,340.17 942.53,340.17 942.53,348.68 1022.61,348.68 1022.61,340.17 1094.19,340.17 1094.19,408.2 1102.69,408.2 1102.69,476.24 1094.19,476.24 1094.19,544.27 1102.69,544.27 1102.69,612.3 1094.19,612.3 1094.19,680.33 1022.61,680.33 1022.61,671.83 942.53,671.83 942.53,680.33 880.17,680.33 880.17,671.83 800.09,671.83 800.09,680.33 728.52,680.33 728.52,612.3 720.01,612.3 720.01,544.27 728.52,544.27 728.52,476.24 720.01,476.24 720.01,408.2 728.52,408.2 728.52,340.17 800.09,340.17 "
     id="polygon1815"
     transform="matrix(0.99998222,0,0,0.99997983,-1.5129405e-7,-8.9183638e-4)" />
  <polygon
     class="cls-1"
     points="72.01,340.17 144.01,340.17 144.01,348.68 216.01,348.68 216.01,340.17 288.01,340.17 288.01,348.68 351.51,348.68 351.51,420.25 360.01,420.25 360.01,500.33 351.51,500.33 351.51,562.69 360.01,562.69 360.01,642.77 351.51,642.77 351.51,714.35 288.01,714.35 288.01,722.85 216.01,722.85 216.01,714.35 144.01,714.35 144.01,722.85 72.01,722.85 72.01,714.35 8.52,714.35 8.52,642.77 0.01,642.77 0.01,562.69 8.52,562.69 8.52,500.33 0.01,500.33 0.01,420.25 8.52,420.25 8.52,348.68 72.01,348.68 "
     id="polygon1817"
     transform="matrix(0.99998222,0,0,0.99997983,-1.5129405e-7,-8.9183638e-4)" />
  <polygon
     class="cls-1"
     points="432.01,340.17 504.01,340.17 504.01,348.68 576.01,348.68 576.01,340.17 648.01,340.17 648.01,348.68 711.51,348.68 711.51,420.25 720.01,420.25 720.01,500.33 711.51,500.33 711.51,562.69 720.01,562.69 720.01,642.77 711.51,642.77 711.51,714.35 648.01,714.35 648.01,722.85 576.01,722.85 576.01,714.35 504.01,714.35 504.01,722.85 432.01,722.85 432.01,714.35 368.52,714.35 368.52,642.77 360.01,642.77 360.01,562.69 368.52,562.69 368.52,500.33 360.01,500.33 360.01,420.25 368.52,420.25 368.52,348.68 432.01,348.68 "
     id="polygon1819"
     transform="matrix(0.99998222,0,0,0.99997983,-1.5129405e-7,-8.9183638e-4)" />
  <line
     class="cls-1"
     x1="1118.5601"
     y1="92.717239"
     x2="1478.5537"
     y2="92.717239"
     id="line1821" />
  <path
     class="cls-1"
     d="M 1155.2395,-44.21"
     id="path1823" />
  <path
     class="cls-1"
     d="M 1141.8797,5.6889934"
     id="path1825" />
  <line
     class="cls-1"
     x1="1118.5601"
     y1="92.717239"
     x2="1141.0298"
     y2="8.8689289"
     id="line1827" />
  <path
     class="cls-1"
     d="M 1441.8644,-44.21"
     id="path1829" />
  <line
     class="cls-1"
     x1="1478.5537"
     y1="92.717239"
     x2="1456.0042"
     y2="8.5589361"
     id="line1831" />
  <line
     class="cls-1"
     x1="1141.0098"
     y1="8.9589272"
     x2="1456.1141"
     y2="8.9589272"
     id="line1833" />
  <path
     class="cls-1"
     d="M 1141.8797,104.90699"
     id="path1835" />
  <line
     class="cls-1"
     x1="1118.5601"
     y1="191.94524"
     x2="1478.5537"
     y2="191.94524"
     id="line1837" />
  <path
     class="cls-1"
     d="M 1155.2395,55.037998"
     id="path1839" />
  <path
     class="cls-1"
     d="M 1141.8797,104.90699"
     id="path1841" />
  <line
     class="cls-1"
     x1="1118.5601"
     y1="191.94524"
     x2="1141.0298"
     y2="108.08692"
     id="line1843" />
  <path
     class="cls-1"
     d="M 1441.8644,55.037998"
     id="path1845" />
  <line
     class="cls-1"
     x1="1478.5537"
     y1="191.94524"
     x2="1456.0042"
     y2="107.77693"
     id="line1847" />
  <line
     class="cls-1"
     x1="1141.0098"
     y1="108.17693"
     x2="1456.1141"
     y2="108.17693"
     id="line1849" />
  <path
     class="cls-1"
     d="M 1141.8797,204.13499"
     id="path1851" />
  <line
     class="cls-1"
     x1="1118.5601"
     y1="290.66327"
     x2="1478.5537"
     y2="290.66327"
     id="line1853" />
  <path
     class="cls-1"
     d="M 1155.2395,153.78601"
     id="path1855" />
  <path
     class="cls-1"
     d="M 1141.8797,203.635"
     id="path1857" />
  <line
     class="cls-1"
     x1="1118.5601"
     y1="290.66327"
     x2="1141.0298"
     y2="206.80493"
     id="line1859" />
  <path
     class="cls-1"
     d="M 1441.8644,153.78601"
     id="path1861" />
  <line
     class="cls-1"
     x1="1478.5537"
     y1="290.66327"
     x2="1456.0042"
     y2="206.50494"
     id="line1863" />
  <line
     class="cls-1"
     x1="1141.0098"
     y1="206.89493"
     x2="1456.1141"
     y2="206.89493"
     id="line1865" />
  <path
     class="cls-1"
     d="M 1141.8797,302.853"
     id="path1867" />
  <line
     class="cls-1"
     x1="1118.5601"
     y1="388.89127"
     x2="1478.5537"
     y2="388.89127"
     id="line1869" />
  <path
     class="cls-1"
     d="M 1155.2395,251.99402"
     id="path1871" />
  <path
     class="cls-1"
     d="M 1141.8797,301.86302"
     id="path1873" />
  <line
     class="cls-1"
     x1="1118.5601"
     y1="388.89127"
     x2="1141.0298"
     y2="305.04294"
     id="line1875" />
  <path
     class="cls-1"
     d="M 1441.8644,251.99402"
     id="path1877" />
  <line
     class="cls-1"
     x1="1478.5537"
     y1="388.89127"
     x2="1456.0042"
     y2="304.73294"
     id="line1879" />
  <line
     class="cls-1"
     x1="1141.0098"
     y1="305.13297"
     x2="1456.1141"
     y2="305.13297"
     id="line1881" />
  <path
     class="cls-1"
     d="M 1141.8797,401.08102"
     id="path1883" />
  <line
     class="cls-1"
     x1="1118.5601"
     y1="483.86935"
     x2="1478.5537"
     y2="483.86935"
     id="line1885" />
  <path
     class="cls-1"
     d="M 1155.2395,346.96211"
     id="path1887" />
  <path
     class="cls-1"
     d="M 1141.8797,396.8411"
     id="path1889" />
  <line
     class="cls-1"
     x1="1118.5601"
     y1="483.86935"
     x2="1141.0298"
     y2="400.01102"
     id="line1891" />
  <path
     class="cls-1"
     d="M 1441.8644,346.96211"
     id="path1893" />
  <line
     class="cls-1"
     x1="1478.5537"
     y1="483.86935"
     x2="1456.0042"
     y2="399.71106"
     id="line1895" />
  <line
     class="cls-1"
     x1="1141.0098"
     y1="400.10101"
     x2="1456.1141"
     y2="400.10101"
     id="line1897" />
  <path
     class="cls-1"
     d="M 1141.8797,496.0591"
     id="path1899" />
  <line
     class="cls-1"
     x1="1118.5601"
     y1="578.8374"
     x2="1478.5537"
     y2="578.8374"
     id="line1901" />
  <path
     class="cls-1"
     d="M 1155.2395,441.94019"
     id="path1903" />
  <path
     class="cls-1"
     d="M 1141.8797,491.77919"
     id="path1905" />
  <line
     class="cls-1"
     x1="1118.5601"
     y1="578.8374"
     x2="1141.0298"
     y2="494.98914"
     id="line1907" />
  <path
     class="cls-1"
     d="M 1441.8644,441.94019"
     id="path1909" />
  <line
     class="cls-1"
     x1="1478.5537"
     y1="578.8374"
     x2="1456.0042"
     y2="494.67914"
     id="line1911" />
  <line
     class="cls-1"
     x1="1141.0098"
     y1="495.06912"
     x2="1456.1141"
     y2="495.06912"
     id="line1913" />
  <path
     class="cls-1"
     d="M 1141.8797,591.02719"
     id="path1915" />
  <line
     class="cls-1"
     x1="1118.5601"
     y1="669.07562"
     x2="1478.5537"
     y2="669.07562"
     id="line1917" />
  <path
     class="cls-1"
     d="M 1155.2395,532.16837"
     id="path1919" />
  <path
     class="cls-1"
     d="M 1141.8797,582.03737"
     id="path1921" />
  <line
     class="cls-1"
     x1="1118.5601"
     y1="669.07562"
     x2="1141.0298"
     y2="585.21729"
     id="line1923" />
  <path
     class="cls-1"
     d="M 1441.8644,532.16837"
     id="path1925" />
  <line
     class="cls-1"
     x1="1478.5537"
     y1="669.07562"
     x2="1456.0042"
     y2="584.90729"
     id="line1927" />
  <line
     class="cls-1"
     x1="1141.0098"
     y1="585.30731"
     x2="1456.1141"
     y2="585.30731"
     id="line1929" />
  <path
     class="cls-1"
     d="M 1141.8797,681.26536"
     id="path1931" />
  <line
     class="cls-1"
     x1="1118.5601"
     y1="763.89368"
     x2="1478.5537"
     y2="763.89368"
     id="line1933" />
  <path
     class="cls-1"
     d="M 1155.2395,626.98646"
     id="path1935" />
  <path
     class="cls-1"
     d="M 1141.8797,676.86545"
     id="path1937" />
  <line
     class="cls-1"
     x1="1118.5601"
     y1="763.89368"
     x2="1141.0298"
     y2="680.0354"
     id="line1939" />
  <path
     class="cls-1"
     d="M 1441.8644,626.98646"
     id="path1941" />
  <line
     class="cls-1"
     x1="1478.5537"
     y1="763.89368"
     x2="1456.0042"
     y2="679.73541"
     id="line1943" />
  <line
     class="cls-1"
     x1="1141.0098"
     y1="680.12543"
     x2="1456.1141"
     y2="680.12543"
     id="line1945" />
  <path
     class="cls-1"
     d="M 1141.8797,776.08345"
     id="path1947" />
  <rect
     class="cls-1"
     x="38.129322"
     y="32.678448"
     width="283.45496"
     height="283.45428"
     id="rect1949" />
</svg>
